<?xml version="1.0" encoding="utf-8"?>
<!-- Generator: Adobe Illustrator 24.0.3, SVG Export Plug-In . SVG Version: 6.00 Build 0)  -->
<svg version="1.1" id="Layer_1" xmlns="http://www.w3.org/2000/svg" xmlns:xlink="http://www.w3.org/1999/xlink" x="0px" y="0px"
	 width="188px" height="55px" viewBox="0 0 188 55" style="enable-background:new 0 0 188 55;" xml:space="preserve">
<style type="text/css">
	.st0{fill:#1DCAD3;}
	.st1{fill:#634E26;}
	.st2{fill:#FFFFFF;}
</style>
<title>logo / Mahekal</title>
<path id="Shape_1_" d="M183.8,6.1v23.2c0,1.8,0.9,2.6,2.5,2.6c0.6,0,1.1-0.1,1.6-0.3v-2.1c-0.2,0.1-0.5,0.2-0.8,0.1
	c-0.6,0-0.9-0.2-0.9-0.9V6.1H183.8z M177.3,26.6c0-1.8-1.4-3-4.4-3c-2.5,0-3.9,1.5-3.9,3s1.3,3,3.9,3
	C175.9,29.6,177.3,28.3,177.3,26.6z M181.5,29.5v2.1c-0.5,0.2-1.1,0.3-1.7,0.3c-0.6,0-1.1-0.2-1.5-0.5c-0.4-0.4-0.6-0.9-0.6-1.5
	v-0.1h-0.1c0,0-1.1,2.1-4.6,2.1c-4,0-6.2-2.4-6.2-5.4s2.3-5.3,6.2-5.3c3.3,0,4.3,1.6,4.3,1.6h0.1v-2.7c0-2.1-1.3-3.7-4.2-3.7
	c-4,0-4.1,2.5-4.1,3.4l-2.2-0.5c0-1.8,0.6-5.2,6.3-5.2c4.9,0,6.6,2.5,6.6,5.7v8.7c0,0.8,0.3,1.1,1,1.1
	C181,29.6,181.2,29.6,181.5,29.5L181.5,29.5z M165.5,31.7l-7.2-8.8l7.1-8.5h-2.9l-7.9,9.6V6h-2.4v25.7h2.5v-4.5l2.2-2.5l5.7,7.1
	H165.5z M137.9,22.7h4.5c2.8,0,4.1-1.2,4.1-3.1c0-1.6-0.9-3-4.1-3C139.6,16.5,138,18.2,137.9,22.7z M146.8,26.6l2.2,0.4
	c0,2.3-1.5,5-6.4,5c-4.8,0-6.9-2.6-6.9-8.8s2.2-8.9,6.9-8.9s6.5,2.5,6.5,5.4c0,3.4-2.3,5.4-6.4,5.4h-4.4c0.4,3.5,2,4.7,4.4,4.7
	C145.8,29.6,146.8,27.9,146.8,26.6L146.8,26.6z M129.3,29.3c0,1.6,0.8,2.6,2.5,2.6c0.6,0,1.1-0.1,1.7-0.3v-2.1
	c-0.2,0.1-0.5,0.1-0.8,0.1c-0.6,0-1-0.3-1-1.1v-8.4c0-3.3-1.5-6-6-6c-3.9,0-4.8,2.6-4.8,2.6h-0.1V6.1h-2.5v25.7h2.5v-11
	c0-1.2,0.4-2.3,1.3-3.1s1.9-1.3,3.1-1.2c3.2,0,4.1,2.1,4.1,4.2L129.3,29.3L129.3,29.3z M111.8,26.6c0-1.8-1.4-3-4.4-3
	c-2.5,0-3.9,1.5-3.9,3s1.3,3,3.9,3C110.4,29.6,111.8,28.3,111.8,26.6L111.8,26.6z M116,29.5v2.1c-0.5,0.2-1.1,0.3-1.7,0.3
	c-0.6,0-1.1-0.2-1.5-0.5s-0.6-0.9-0.6-1.5v-0.1h-0.1c0,0-1.1,2.1-4.6,2.1c-4,0-6.2-2.4-6.2-5.4s2.3-5.3,6.2-5.3
	c3.3,0,4.3,1.6,4.3,1.6h0.1v-2.7c0-2.1-1.3-3.7-4.2-3.7c-4,0-4.1,2.5-4.1,3.4l-2.2-0.5c0-1.8,0.6-5.2,6.3-5.2c4.9,0,6.6,2.5,6.6,5.7
	v8.7c0,0.8,0.3,1.1,1,1.1C115.5,29.6,115.7,29.6,116,29.5L116,29.5z M73.6,31.7V17.5c0-0.8-0.3-1.1-1-1.1c-0.3,0-0.5,0.1-0.8,0.1
	v-2.1c0.5-0.2,1.1-0.3,1.7-0.3c1.7,0,2.5,1,2.5,2.6h0.1c0,0,1-2.6,4.9-2.6c2.9,0,4.6,1.2,5.3,2.9c0.8-1.5,2.5-2.9,5.3-2.9
	c4.4,0,6,2.8,6,6v8.4c0,0.8,0.3,1.1,1,1.1c0.3,0,0.5-0.1,0.8-0.1v2.1c-0.5,0.2-1.1,0.3-1.7,0.3c-1.7,0-2.5-1-2.5-2.6v-8.6
	c0-2.2-0.9-4.2-4.1-4.2c-1.8-0.1-3.5,1.1-4.1,2.8l0.1,0.8v11.5h-2.5v-11c0-2.2-0.8-4.2-4.1-4.2c-1.1-0.1-2.2,0.3-3,1.1
	s-1.3,1.8-1.3,2.9v11.2H73.6z M88,41.2v7.6h0.8v-0.6h0.1c0.1,0.3,0.6,0.6,1.3,0.6c1.3,0,2-0.9,2-2.6c0-1.7-0.6-2.6-2-2.6
	c-0.8,0-1.2,0.4-1.3,0.6h-0.1v-3H88z M88.8,46.3c0-1.2,0.4-1.8,1.3-1.8c0.9,0,1.2,0.6,1.2,1.8c0,1.2-0.4,1.8-1.2,1.8
	C89.2,48.2,88.8,47.5,88.8,46.3L88.8,46.3z M99.2,47.3c0,0.4-0.3,0.8-1.2,0.8c-0.6,0-1.1-0.3-1.2-1.3H98c1.3,0,2-0.6,2-1.6
	c0-0.8-0.5-1.6-2-1.6c-1.5,0-2.2,0.8-2.2,2.7S96.6,49,98,49c1.5,0,2-0.8,2-1.6L99.2,47.3L99.2,47.3z M98,44.4c0.9,0,1.1,0.4,1.1,0.8
	c0,0.6-0.4,0.8-1.2,0.8h-1.3C96.8,44.8,97.2,44.4,98,44.4L98,44.4z M105.6,43.6c-1.3,0-2,0.8-2,2.6s0.6,2.7,2,2.7
	c0.5,0.1,1-0.2,1.3-0.6h0.1c0,0.2,0.1,0.4,0.2,0.5c0.1,0.1,0.3,0.2,0.5,0.2c0.2,0,0.4,0,0.6-0.1v-0.7c-0.1,0-0.1,0.1-0.2,0.1
	c-0.2,0-0.3-0.1-0.3-0.4v-4.1h-0.8v0.6h-0.1C106.8,44.1,106.4,43.6,105.6,43.6L105.6,43.6z M107,46.3c0,1.2-0.4,1.8-1.3,1.8
	c-0.9,0-1.2-0.6-1.2-1.8c0-1.2,0.4-1.8,1.2-1.8C106.6,44.5,107,45.1,107,46.3L107,46.3z M115.1,47c0,0.7-0.3,1.2-1.1,1.2
	s-1.3-0.6-1.3-1.8s0.4-1.8,1.3-1.8s1.1,0.6,1.1,1.2l0.8-0.1c0-1-0.4-1.8-2-1.8c-1.5,0-2.2,0.8-2.2,2.7s0.7,2.6,2.2,2.6
	c1.6,0,2-0.8,2-1.8L115.1,47z M122.9,48.1c0,0.2,0,0.5,0.2,0.6c0.2,0.2,0.4,0.2,0.6,0.2c0.2,0,0.4,0,0.6-0.1v-0.7
	c-0.1,0-0.1,0.1-0.2,0.1c-0.2,0-0.3-0.1-0.3-0.4v-2.4c0.1-0.5-0.1-1-0.5-1.3c-0.3-0.3-0.8-0.5-1.3-0.5c-0.6-0.1-1.1,0.2-1.4,0.7v-3
	h-0.9v7.6h0.9v-3.3c0-0.3,0.1-0.6,0.3-0.9c0.2-0.2,0.5-0.4,0.9-0.3c0.9,0,1.1,0.6,1.1,1.2L122.9,48.1z M133.9,48.9v-2.6
	c0-0.7,0.2-1.8,1.5-1.8c0.1,0,0.3,0,0.4,0.1v-0.8c-0.1,0-0.2-0.1-0.4-0.1c-0.7,0-1.3,0.3-1.5,0.9c0-0.2-0.1-0.5-0.2-0.7
	c-0.2-0.2-0.4-0.3-0.6-0.3c-0.2,0-0.4,0-0.6,0.1v0.7c0.1,0,0.1-0.1,0.2-0.1c0.2,0,0.3,0.1,0.3,0.4v4.1
	C133.3,48.9,133.6,48.9,133.9,48.9L133.9,48.9z M142.6,47.3c0,0.4-0.3,0.8-1.2,0.8c-0.6,0-1.1-0.3-1.2-1.3h1.3c1.3,0,2-0.6,2-1.6
	c0-0.8-0.5-1.6-2-1.6c-1.5,0-2.2,0.8-2.2,2.7s0.7,2.6,2.2,2.6c1.5,0,2-0.8,2-1.6L142.6,47.3L142.6,47.3z M141.4,44.4
	c0.9,0,1.1,0.4,1.1,0.8c0,0.6-0.4,0.8-1.2,0.8h-1.3C140.2,44.8,140.7,44.4,141.4,44.4L141.4,44.4z M150.1,47.5
	c0,0.4-0.2,0.7-1.1,0.7s-1.1-0.4-1.1-0.8l-0.8,0.1c0,0.7,0.5,1.5,2,1.5s2-0.6,2-1.4c0-1.9-2.9-1.5-2.9-2.5c0-0.4,0.3-0.6,1-0.6
	s1.1,0.4,1.1,0.9l0.8-0.1c0-0.9-0.6-1.6-2-1.6s-1.8,0.8-1.8,1.4C147.1,46.9,150.1,46.3,150.1,47.5z M156.7,48.9
	c1.5,0,2.1-0.8,2.1-2.6s-0.6-2.7-2.1-2.7s-2.2,0.8-2.2,2.7S155.2,48.9,156.7,48.9z M156.7,48.2c-0.8,0-1.3-0.6-1.3-1.8
	s0.4-1.8,1.3-1.8c0.9,0,1.3,0.6,1.3,1.8S157.6,48.2,156.7,48.2z M163.7,48.9v-2.6c0-0.7,0.2-1.8,1.5-1.8c0.1,0,0.3,0,0.4,0.1v-0.8
	c-0.1,0-0.2-0.1-0.4-0.1c-0.7,0-1.3,0.3-1.5,0.9c0-0.2-0.1-0.5-0.2-0.7c-0.2-0.2-0.4-0.3-0.6-0.3c-0.2,0-0.4,0-0.6,0.1v0.7
	c0.1,0,0.1-0.1,0.2-0.1c0.2,0,0.3,0.1,0.3,0.4v4.1L163.7,48.9L163.7,48.9z M172.2,43.7h-1.5v-1.3h-0.9v1.3h-0.7v0.8h0.7v2.8
	c0,1,0.4,1.6,1.8,1.6c0.2,0,0.5,0,0.7-0.1v-0.8c-0.2,0.1-0.4,0.1-0.6,0.1c-0.7,0-0.9-0.4-0.9-1.1v-2.6h1.5L172.2,43.7L172.2,43.7z"
	/>
<g>
	<path class="st0" d="M56.2,28.1c0,0,0,0.1,0,0.1c0,0.6,0,1.3,0,1.9c0,0.4,0,0.8,0,1.3c-0.1,0-0.1,0-0.1-0.1c-0.9-0.5-1.9-1-2.8-1.5
		c-0.9-0.5-1.8-0.9-2.7-1.3c-1.3-0.5-2.5-1.1-3.7-1.6c-1.2-0.6-2.4-1.2-3.5-2c-0.1-0.1-0.3-0.2-0.4-0.3c0,0,0,0,0,0c0,0,0,0.1,0,0.1
		c0.3,1.2,0.6,2.5,0.8,3.8c0.2,1,0.3,2.1,0.3,3.1c0,0.8,0,1.6-0.1,2.5c-0.1,0.8-0.2,1.5-0.3,2.3c-0.2,1.1-0.4,2.3-0.8,3.4
		c0,0,0,0,0,0.1c0,0,0.1,0,0.1,0c0.9,0.3,1.8,0.7,2.6,1.2c0.4,0.3,0.8,0.6,1.2,1c0.4,0.3,0.7,0.8,1,1.2c0.4,0.6,0.8,1.2,1,1.9
		c0.2,0.6,0.2,1.2,0.2,1.8c-0.1,0.9-0.3,1.7-0.8,2.5c-0.6,1-1.4,1.6-2.4,2.1c-0.9,0.4-1.8,0.5-2.8,0.4c-1-0.1-1.9-0.4-2.7-1.1
		c-0.6-0.5-1-1-1.4-1.7c-0.2-0.4-0.4-0.9-0.6-1.3c0-0.1,0-0.1-0.1-0.2c-0.2,0.2-0.3,0.3-0.5,0.5c-1.5,1.5-3.2,2.6-5.1,3.3
		c-0.9,0.3-1.7,0.8-2.5,1.3c-0.6,0.4-1,0.8-1.5,1.3c-0.2,0.2-0.3,0.4-0.5,0.6c-0.2-0.2-0.4-0.4-0.6-0.6c-0.6-0.6-1.3-1.1-2-1.6
		c-0.5-0.4-1.1-0.6-1.7-0.8c-1.2-0.4-2.4-1-3.5-1.7c-1.1-0.7-2-1.5-2.9-2.5c0,0,0,0-0.1-0.1c0,0.1,0,0.2,0,0.2
		c-0.1,0.4-0.3,0.8-0.5,1.2c-0.4,0.7-0.9,1.3-1.6,1.8c-0.7,0.5-1.4,0.8-2.3,0.9c-1.2,0.1-2.4-0.1-3.5-0.7c-0.3-0.2-0.6-0.4-0.8-0.6
		c-0.4-0.4-0.8-0.9-1.2-1.4c-0.6-0.9-0.8-1.8-0.8-2.8c0-1.1,0.4-2,0.9-2.9c0.6-1,1.5-1.8,2.6-2.5c0.8-0.5,1.6-0.8,2.4-1.1
		c0.1,0,0.2-0.1,0.2-0.1c0,0,0-0.1,0-0.1c-0.3-1-0.6-2.1-0.7-3.2c-0.1-1-0.3-1.9-0.3-2.9c0-0.8,0-1.5,0-2.3c0-0.9,0.1-1.8,0.2-2.6
		c0.1-1.1,0.3-2.2,0.6-3.2c0,0,0,0,0-0.1c0,0-0.1,0-0.1,0c-1.3,0.8-2.7,1.5-4.1,2.1c-1.3,0.6-2.5,1.1-3.8,1.6
		c-0.7,0.3-1.5,0.7-2.2,1.1c-0.7,0.4-1.5,0.7-2.2,1.1c0,0,0,0-0.1,0c0-0.1,0-0.2,0-0.3c0-0.5,0-1.1,0-1.6c0-0.6,0-1.2,0-1.8
		c0-0.3,0-0.6,0-0.9c0-0.8,0.1-1.6,0.1-2.4c0.1-0.9,0.2-1.7,0.3-2.5c0.3-1.9,0.8-3.7,1.7-5.4c0.5-1.1,1.2-2.1,2.1-3
		c1.4-1.4,3-2.3,4.9-2.7c0.8-0.1,1.7-0.2,2.5-0.1c1.4,0.1,2.8,0.5,4,1.1c0.3,0.1,0.6,0.3,0.9,0.4c0.5,0.2,1,0.4,1.5,0.5
		c0.8,0.2,1.6,0.3,2.4,0.2c0.6,0,1.1-0.1,1.6-0.3c0.3-0.1,0.5-0.2,0.7-0.4c0.3-0.2,0.4-0.5,0.5-0.9c0-0.6,0-1.3-0.2-1.9
		C23,9,22.8,8.5,22.7,8c-0.4-1.8-0.1-3.4,1-4.8c0.9-1.2,2-2.1,3.2-2.7c0.3-0.2,0.6-0.3,1-0.4c0,0,0,0,0,0C28,0,28,0,28,0
		c0,0,0,0,0,0c0.3,0.1,0.6,0.2,0.9,0.4C30.1,1,31,1.8,31.9,2.7c0.2,0.2,0.4,0.5,0.6,0.8c0.4,0.7,0.6,1.4,0.6,2.2
		c0,0.7-0.1,1.5-0.3,2.2c-0.1,0.6-0.3,1.2-0.4,1.8c-0.1,0.6-0.2,1.2-0.2,1.8c0,0.2,0,0.5,0.1,0.7c0.1,0.3,0.4,0.5,0.6,0.7
		c0.4,0.2,0.9,0.3,1.3,0.4c0.7,0.1,1.4,0,2.2,0c1-0.1,1.9-0.3,2.8-0.6c0.2,0,0.3-0.1,0.5-0.2c1.1-0.6,2.3-1,3.5-1.3
		c1.2-0.3,2.5-0.3,3.7-0.1c1.3,0.2,2.5,0.7,3.6,1.5c1,0.7,1.9,1.6,2.6,2.7c0.8,1.1,1.3,2.4,1.8,3.7c0.4,1.3,0.7,2.7,0.9,4.1
		c0.1,1.1,0.2,2.1,0.2,3.2c0,0,0,0.1,0,0.1C56.2,26.8,56.2,27.5,56.2,28.1z"/>
	<path class="st1" d="M53,26.3c0,0-0.1,0-0.1,0c-1.1-0.5-2.2-0.9-3.3-1.4c-1.1-0.5-2.2-1-3.2-1.5c-0.8-0.4-1.5-0.9-2.2-1.5
		c-0.4-0.4-0.8-0.8-1.1-1.3c-0.2-0.4-0.3-0.9-0.3-1.4c0.1-0.4,0.2-0.8,0.4-1.2c0.2-0.4,0.5-0.7,0.9-0.9c0.5-0.3,1.1-0.4,1.7-0.3
		c0.3,0,0.7,0.1,1,0.3c0.5,0.3,0.9,0.8,1.1,1.4c0.1,0.2,0.1,0.4,0.1,0.7c0,0.3-0.1,0.6-0.4,0.8c-0.4,0.3-0.9,0.1-1.1-0.3
		c-0.1-0.1-0.1-0.2,0-0.3c0.1-0.1,0.1-0.3,0-0.4c-0.1-0.4-0.4-0.6-0.8-0.7c-0.3,0-0.7,0.2-0.8,0.5c-0.1,0.3-0.2,0.7-0.1,1
		c0.2,1,1.1,1.8,2.2,1.9c0.8,0.1,1.5-0.2,2-0.8c0.6-0.6,0.8-1.4,0.6-2.3c-0.1-0.9-0.6-1.7-1.2-2.3c-0.6-0.6-1.2-0.9-2-1.1
		c-0.6-0.1-1.2-0.1-1.8,0c-1,0.2-1.8,0.6-2.4,1.4c-0.4,0.4-0.6,0.9-0.8,1.4c-0.3,0.7-0.3,1.4-0.2,2.1c0.1,0.7,0.4,1.2,0.8,1.8
		c0.4,0.6,1,1.1,1.6,1.6c0.9,0.7,1.8,1.2,2.8,1.7c1.3,0.6,2.6,1.2,3.9,1.8c1.5,0.6,2.9,1.2,4.3,2c0,0,0.1,0,0.1,0.1c0,0,0-0.1,0-0.1
		c0-0.3,0-0.6,0-1c0-1.2,0-2.3-0.1-3.5c-0.1-1.1-0.2-2.1-0.5-3.2c-0.3-1.5-0.8-2.9-1.5-4.2c-0.5-1-1.2-1.9-2-2.7
		c-0.8-0.8-1.8-1.4-2.9-1.7c-1.3-0.4-2.6-0.4-3.9-0.2c-1,0.2-2,0.5-2.9,1c-0.9,0.4-1.9,0.7-2.9,1c-0.8,0.2-1.6,0.3-2.4,0.3
		c0,0,0,0-0.1,0c0.4,0.2,0.7,0.4,1,0.7c1.1,1,2.1,2.1,3,3.3c0,0.1,0.1,0.1,0.1,0.2c0,0,0,0,0,0c0-0.4,0.1-0.8,0.2-1.1
		c0.1-0.4,0.3-0.8,0.5-1.2c0.4-0.6,0.9-1.2,1.5-1.6c0.2-0.1,0.4-0.3,0.6-0.4c0.7-0.3,1.5-0.5,2.3-0.6c0.6-0.1,1.3,0,1.9,0.1
		c1.1,0.2,2,0.8,2.8,1.6c0.7,0.7,1.2,1.5,1.7,2.4c0.5,1.1,0.9,2.2,1.2,3.4c0.2,0.9,0.3,1.8,0.4,2.8C53,24.9,53,25.6,53,26.3z"/>
	<path class="st1" d="M3.2,26.3c0-0.1,0-0.2,0-0.3c0-0.7,0.1-1.4,0.1-2.1c0.1-1,0.2-1.9,0.5-2.8C4.1,20,4.5,18.8,5,17.7
		c0.4-0.8,1-1.6,1.7-2.3c1.1-1,2.4-1.6,3.9-1.6c0.5,0,0.9,0,1.4,0.1c0.4,0.1,0.7,0.2,1.1,0.3c0.7,0.3,1.3,0.8,1.9,1.4
		c0.3,0.4,0.7,0.8,0.8,1.3c0.1,0.3,0.2,0.5,0.3,0.8c0.1,0.3,0.2,0.7,0.2,1c0,0,0,0,0,0c0,0,0,0,0.1-0.1c0.4-0.6,0.8-1.1,1.3-1.6
		c0.6-0.7,1.3-1.4,2.1-2c0.2-0.1,0.4-0.2,0.5-0.4c0,0,0.1,0,0.1-0.1c-0.1,0-0.1,0-0.2,0c-0.6,0-1.1,0-1.7-0.1c-1-0.2-1.9-0.5-2.8-1
		c-0.8-0.4-1.7-0.8-2.7-1c-1-0.3-2.1-0.4-3.2-0.3c-1,0.1-1.9,0.4-2.7,0.9c-1,0.5-1.8,1.3-2.5,2.2c-0.8,1.1-1.4,2.3-1.9,3.6
		c-0.6,1.8-1,3.8-1.1,5.7c-0.1,0.9-0.1,1.8-0.1,2.7c0,0.4,0,0.9,0,1.3c0,0.1,0,0.2,0,0.3c0.1,0,0.1-0.1,0.2-0.1
		c0.3-0.2,0.6-0.3,0.9-0.5c0.9-0.5,1.9-0.9,2.9-1.3c1.4-0.6,2.9-1.2,4.3-1.9c0.9-0.5,1.8-1,2.6-1.6c0.7-0.5,1.3-1.1,1.8-1.8
		c0.5-0.7,0.8-1.5,0.8-2.5c0-0.6-0.2-1.2-0.4-1.8c-0.3-0.7-0.7-1.2-1.3-1.7c-0.7-0.5-1.5-0.8-2.3-0.8c-0.6,0-1.2,0-1.7,0.2
		c-0.8,0.3-1.5,0.9-2,1.6c-0.5,0.7-0.7,1.4-0.7,2.2c0,0.7,0.3,1.4,0.8,1.9c0.4,0.4,0.9,0.6,1.4,0.6c1,0.1,1.8-0.3,2.3-1.2
		c0.3-0.5,0.4-1.1,0.2-1.7c-0.2-0.4-0.6-0.7-1.1-0.5c-0.4,0.2-0.6,0.6-0.5,1c0,0.1,0,0.1,0,0.2c-0.1,0.4-0.7,0.6-1,0.4
		c-0.1-0.1-0.2-0.1-0.3-0.2c-0.2-0.2-0.3-0.6-0.2-0.9c0.1-0.6,0.4-1,0.8-1.4c0.3-0.3,0.7-0.6,1.2-0.7c0.3-0.1,0.6-0.1,0.8,0
		c0.6,0.1,1.1,0.2,1.5,0.6c0.4,0.4,0.7,0.9,0.8,1.4c0.2,0.6,0.1,1.3-0.2,1.8c-0.2,0.4-0.5,0.8-0.9,1.1c-0.6,0.6-1.2,1-1.9,1.4
		c-1.1,0.6-2.2,1.2-3.4,1.7C5.7,25.3,4.5,25.8,3.2,26.3C3.3,26.3,3.2,26.3,3.2,26.3z"/>
	<path class="st2" d="M13.2,32.4c0,0.1,0,0.3,0,0.4c0,0.8,0.1,1.7,0.2,2.5c0.1,1,0.3,2.1,0.6,3.1c0.6,2.3,1.5,4.5,2.9,6.5
		c1.2,1.7,2.6,3.2,4.4,4.4c1.5,1,3.1,1.6,4.8,1.9c1,0.2,2,0.2,3.1,0.1c1.1-0.1,2.1-0.4,3.1-0.8c1.9-0.8,3.5-1.9,4.9-3.4
		c1.2-1.3,2.2-2.7,3-4.3c1.3-2.7,2.1-5.5,2.3-8.4c0.1-1,0.1-2.1,0-3.1c-0.1-1.2-0.2-2.4-0.4-3.5c-0.4-2-1.1-4-2-5.8
		c-0.9-1.8-2.1-3.4-3.6-4.8c-1.1-1-2.3-1.8-3.6-2.4c-1.4-0.6-2.8-1-4.3-1.1c-1.1-0.1-2.1,0-3.1,0.2c-1.5,0.3-2.9,1-4.3,1.8
		c-1.4,0.9-2.6,2.1-3.7,3.5c-1.4,1.8-2.4,3.9-3.2,6.1c-0.4,1.4-0.7,2.8-0.9,4.2C13.3,30.3,13.2,31.3,13.2,32.4z"/>
	<path class="st1" d="M31.2,9.1C31.1,9.1,31.1,9.2,31.2,9.1c-0.2,0.3-0.4,0.4-0.6,0.5c-0.6,0.3-1.3,0.5-2,0.3
		c-0.6-0.1-1.1-0.3-1.6-0.6c-0.5-0.3-0.8-0.7-1-1.2c-0.3-0.8-0.4-1.5-0.1-2.3c0.3-0.8,0.8-1.3,1.6-1.5c0.5-0.1,1-0.1,1.5,0
		c0.5,0.1,0.9,0.5,1.1,1c0.1,0.3,0.1,0.6,0,0.9c-0.1,0.2-0.1,0.3-0.3,0.4c-0.4,0.2-0.9,0.1-1.2-0.2c-0.3-0.3-0.8-0.4-1.1-0.1
		C27,6.7,27,7.2,27.3,7.5c0.2,0.2,0.4,0.4,0.7,0.6c0.5,0.3,1.1,0.4,1.7,0.3c0.8-0.1,1.5-0.6,1.8-1.4c0.2-0.5,0.3-1,0.2-1.6
		c-0.2-1.2-0.8-2-1.9-2.5c-0.8-0.3-1.7-0.4-2.6-0.2c-1.5,0.3-2.5,1.2-3,2.6c-0.3,0.9-0.3,1.8-0.1,2.8c0.2,1,0.8,1.8,1.6,2.5
		c0.6,0.4,1.3,0.7,2,0.9c0.3,0.1,0.6,0.1,0.9,0.2c0.8,0.2,1.6,0.6,2.4,0.9c0,0,0.1,0,0.1,0C30.9,11.4,31,10.3,31.2,9.1z"/>
	<path class="st1" d="M13.3,41.3C13.2,41.3,13.2,41.3,13.3,41.3c-0.1,0-0.1,0-0.2,0c-0.4,0.1-0.8,0.3-1.2,0.5
		c-0.6,0.3-1.2,0.7-1.7,1.1c-0.7,0.6-1.3,1.2-1.7,2c-0.5,1.1-0.6,2.3,0,3.4c0.5,1,1.3,1.7,2.4,2.1c1.2,0.4,2.4,0.3,3.4-0.5
		c0.5-0.4,0.9-0.9,1.2-1.4c0.5-0.9,0.4-2-0.2-2.8c-0.5-0.6-1.1-0.9-1.9-0.9c-0.8,0-1.5,0.4-2,1c-0.2,0.3-0.2,0.6,0,0.9
		c0.2,0.3,0.5,0.4,0.9,0.4c0.2,0,0.3-0.1,0.4-0.2c0.2-0.2,0.4-0.3,0.6-0.4c0.2,0,0.3,0,0.5,0c0.4,0.2,0.6,0.7,0.4,1.1
		c-0.2,0.4-0.5,0.8-0.9,1.1c-0.4,0.2-0.8,0.3-1.3,0.3c-0.6-0.1-1.1-0.3-1.5-0.8c-0.6-0.7-0.8-1.4-0.5-2.3c0.1-0.4,0.3-0.7,0.6-1
		c0.3-0.4,0.6-0.7,1-0.9c0.5-0.3,1.1-0.5,1.7-0.5c0.4,0,0.8,0.1,1.2,0.2c0.1,0,0.1,0.1,0.2,0.1C14,43,13.6,42.2,13.3,41.3z"/>
	<path class="st1" d="M42.2,41.4c-0.3,0.8-0.6,1.5-1,2.2c0.1,0,0.1,0,0.2,0c0.3-0.1,0.6,0,0.8,0c0.7,0.1,1.3,0.4,1.9,0.8
		c0.5,0.3,0.9,0.8,1.2,1.4c0.3,0.5,0.4,1.1,0.2,1.7c-0.3,0.8-0.9,1.4-1.7,1.6c-0.6,0.2-1.2,0.1-1.7-0.3c-0.4-0.3-0.7-0.6-0.9-1
		c-0.2-0.4,0-0.9,0.4-1.1c0.1-0.1,0.2-0.1,0.4,0c0.2,0,0.3,0.1,0.4,0.2c0.1,0.1,0.2,0.2,0.3,0.3c0.2,0.2,0.4,0.3,0.6,0.2
		c0.3,0,0.6-0.2,0.7-0.5c0.1-0.3,0.1-0.6-0.2-0.9c-0.2-0.2-0.4-0.4-0.7-0.6c-0.6-0.4-1.2-0.5-1.9-0.3c-1.4,0.4-2.2,2-1.5,3.4
		c0.3,0.6,0.7,1.1,1.1,1.5c0.8,0.7,1.8,0.9,2.8,0.8c1-0.1,1.8-0.6,2.4-1.3c0.6-0.7,1-1.5,1.1-2.4c0.1-0.7-0.1-1.4-0.5-2.1
		c-0.3-0.6-0.7-1.1-1.2-1.6c-1-0.9-2-1.5-3.2-2C42.3,41.4,42.2,41.4,42.2,41.4z"/>
	<path class="st0" d="M41.5,28.7c-0.2-1.2-0.5-2.4-0.9-3.6c-0.7-2-1.6-3.8-2.7-5.3c-1.1-1.5-2.3-2.7-3.7-3.6
		c-1.6-1.1-3.4-1.7-5.3-1.9c-1.1-0.1-2.2,0-3.3,0.2c-1.5,0.3-3,1-4.3,1.9c-1.3,0.9-2.5,2.1-3.5,3.5c-1.2,1.6-2.1,3.5-2.8,5.6
		c-0.7,2.1-1,4.4-1,6.9l0,0.1c0,0.1,0,0.2,0,0.3c0,0.8,0.1,1.5,0.1,2.2c0.1,1,0.3,2.1,0.6,3.1c0.6,2.2,1.4,4.2,2.6,6
		c1,1.6,2.2,2.8,3.5,3.9c1.8,1.4,3.7,2.2,5.8,2.4c0.4,0.1,0.9,0.1,1.3,0.1c0.5,0,1,0,1.4-0.1c1.2-0.2,2.4-0.5,3.5-1.1
		c1.4-0.7,2.7-1.7,3.9-3c1.2-1.3,2.3-2.9,3.1-4.7c1.2-2.5,1.8-5.4,1.9-8.4C41.8,31.7,41.7,30.2,41.5,28.7z"/>
	<path class="st2" d="M34.9,45.3c0.3,0,0.5-0.1,0.7-0.4c0.6-0.9,1.1-1.5,1.5-2.2c0.8-1.2,1.4-2.6,1.9-4c0.4-1.2,0.6-2.3,0.8-3.4
		c0.1-0.8,0.2-1.6,0.2-2.4c0-0.7-0.1-1.3-0.3-1.9c-0.5-1.8-1.5-3.3-3-4.4c-1-0.7-2.1-1.2-3.2-1.3c-0.9-0.1-1.8,0-2.7,0.3
		c-1,0.4-1.8,1-2.5,1.9l-0.3,0.4l-0.2-0.3c0,0-0.1-0.1-0.1-0.1c-0.3-0.4-0.6-0.7-0.9-1c-1-0.8-2.1-1.3-3.4-1.3
		c-0.9,0-1.7,0.1-2.6,0.5c-1.3,0.5-2.4,1.4-3.3,2.7c-0.8,1.1-1.3,2.4-1.4,3.9c-0.1,0.8,0,1.8,0.1,2.8c0.1,0.8,0.3,1.6,0.4,2.3
		c0.3,1.4,0.7,2.6,1.3,3.7c0.7,1.4,1.6,2.7,2.4,3.8c0.2,0.2,0.4,0.3,0.5,0.3c0.3,0,0.5-0.1,0.7-0.2c0.3-0.3,0.4-0.7,0.2-1
		c0-0.1-0.1-0.1-0.1-0.2c-0.1-0.2-0.3-0.4-0.4-0.6c-0.3-0.4-0.5-0.7-0.8-1.1c-0.9-1.4-1.6-3-2.1-4.6c-0.3-1-0.4-2-0.5-2.9
		c-0.1-0.5-0.1-0.9-0.1-1.3c0-0.5,0-1,0.1-1.5c0.2-0.9,0.5-1.7,1-2.4c0.7-0.9,1.5-1.6,2.7-2.1c0.5-0.2,1-0.3,1.5-0.3
		c0.9,0,1.6,0.3,2.3,0.8c0.6,0.5,1.1,1.1,1.4,2c0.2,0.6,0.2,1.3-0.1,1.9c-0.2,0.5-0.5,0.9-1,1.2c-0.6,0.5-1.4,0.7-2.2,0.8
		c-0.4,0-0.7,0-0.9-0.1c-0.7-0.2-1.1-0.8-1.1-1.5c0-0.6,0.4-1,0.9-1.1c0.1,0,0.3,0,0.4,0c0.3,0,0.6,0.1,0.9,0.1c0.2,0,0.3,0,0.4,0
		c0.4-0.1,0.7-0.4,0.7-0.8c0-0.4-0.2-0.8-0.6-0.9c-0.7-0.2-1.4-0.3-2.1-0.2c-0.9,0.2-1.6,0.7-2,1.5c-0.3,0.6-0.4,1.3-0.3,2
		c0.1,0.8,0.5,1.4,1.1,1.9c0.6,0.4,1.2,0.7,2.1,0.7c0.4,0,0.9,0,1.4-0.1c1-0.2,1.8-0.5,2.5-1.1c0.3-0.3,0.6-0.6,0.9-0.9l0.2-0.2
		l0.2,0.2c0.1,0.1,0.1,0.1,0.2,0.2c0.1,0.1,0.2,0.2,0.3,0.3c0.6,0.6,1.4,1,2.3,1.3c0.9,0.3,1.8,0.3,2.6,0.2c0.8-0.2,1.5-0.6,2-1.2
		c0.6-0.8,0.7-1.6,0.5-2.6c-0.1-0.6-0.4-1.1-0.8-1.5c-0.6-0.5-1.3-0.8-2.1-0.8c-0.5,0-1,0.1-1.5,0.3c-0.1,0-0.2,0.1-0.2,0.2
		c-0.2,0.2-0.3,0.5-0.2,0.9c0.1,0.3,0.3,0.5,0.6,0.6c0.1,0,0.3,0,0.5,0c0.4-0.1,0.7-0.2,1.1-0.1c0.6,0.1,1.1,0.6,1.1,1.2
		c0,0.7-0.5,1.3-1.3,1.4c-0.4,0.1-0.8,0-1.2,0c-0.8-0.1-1.5-0.5-2.1-1c-0.8-0.7-1.1-1.6-0.9-2.6c0.2-1.2,1-2.2,2.2-2.8
		c0.5-0.2,1-0.4,1.5-0.4c0.3,0,0.6,0,1,0.1c0.6,0.1,1.1,0.4,1.8,0.8c1.3,0.9,2.2,2.1,2.5,3.7c0.2,1,0.2,2,0.1,3.2
		c-0.1,0.8-0.3,1.6-0.4,2.3c-0.3,1.4-0.8,2.7-1.5,3.9c-0.4,0.7-0.9,1.4-1.5,2.3l-0.1,0.1c-0.1,0.2-0.2,0.3-0.4,0.5
		c-0.2,0.3-0.2,0.7,0,1C34.4,45.2,34.6,45.3,34.9,45.3z"/>
	<path class="st1" d="M27.9,23.8C27.9,23.8,27.9,23.8,27.9,23.8c0.3,0.3,0.5,0.5,0.8,0.6c0.2,0.1,0.4,0.1,0.6,0
		c0.3-0.1,0.5-0.4,0.6-0.7c0-0.3-0.2-0.6-0.4-0.8c-0.2-0.1-0.3-0.2-0.4-0.3c-0.2-0.4-0.3-0.7-0.3-1.1c0-0.2,0-0.4,0-0.5
		c0-0.2,0-0.4,0-0.5c0.1-0.7,0.5-1.3,1.2-1.6c0.4-0.2,0.9-0.2,1.3-0.2c0.6,0.1,1.1,0.3,1.4,0.9c0.2,0.4,0.2,0.7,0.1,1.1
		c-0.1,0.3-0.3,0.5-0.6,0.5c-0.4,0.1-0.7-0.2-0.6-0.5c0.1-0.5-0.5-1-1-0.9c-0.4,0.1-0.6,0.4-0.6,0.8c-0.1,0.9,0.4,1.7,1.2,2.1
		c0.8,0.4,1.9,0.2,2.5-0.5c0.7-0.7,1-1.6,0.8-2.6c-0.3-1.3-1.2-2.1-2.5-2.4c-0.6-0.1-1.2-0.1-1.7,0c-0.9,0.2-1.6,0.6-2.2,1.3
		c0,0,0,0-0.1,0.1c-0.1-0.1-0.1-0.1-0.1-0.2c-0.2-0.2-0.5-0.5-0.8-0.6c-0.8-0.5-1.7-0.7-2.6-0.6c-0.9,0.1-1.6,0.4-2.2,1
		c-0.9,0.9-1.1,2.3-0.5,3.5c0.5,0.9,1.5,1.5,2.6,1.3c1.1-0.2,1.8-1.2,1.6-2.3c-0.1-0.4-0.4-0.7-0.7-0.7c-0.4,0-0.7,0.2-0.8,0.6
		c0,0.1,0,0.2,0,0.4c0,0.3-0.2,0.5-0.4,0.5c-0.2,0-0.4-0.1-0.6-0.2c-0.3-0.3-0.4-0.8-0.3-1.2c0.2-0.6,0.6-0.9,1.1-1.1
		c0.4-0.1,0.8-0.1,1.3,0c1.2,0.3,1.7,1.2,1.7,2.2c0,0.2,0,0.4,0,0.5c0,0.4-0.1,0.7-0.2,1.1c-0.1,0.2-0.2,0.3-0.4,0.4
		c-0.4,0.2-0.6,0.6-0.4,1.1c0.2,0.4,0.6,0.6,1.1,0.4c0.2-0.1,0.4-0.2,0.6-0.4C27.7,23.9,27.8,23.9,27.9,23.8z"/>
	<path class="st1" d="M34.2,23.7c0.1,0,0.1,0,0.1,0c0.4,0.1,0.8,0.2,1.1,0.4c0.5,0.2,1.1,0.4,1.5,0.7c1,0.6,1.8,1.4,2.5,2.2
		c0,0,0.1,0.1,0.1,0.1c0-0.1,0-0.1,0-0.2c-0.2-0.6-0.4-1.1-0.6-1.7c-0.3-0.9-0.7-1.7-1.1-2.5c-0.5-0.9-1-1.7-1.7-2.5
		c0,0-0.1-0.1-0.1-0.1C35.9,21.5,35.5,22.8,34.2,23.7z"/>
	<path class="st1" d="M19.7,20.1c-0.1,0.1-0.1,0.1-0.1,0.1c-1,1.1-1.7,2.4-2.3,3.8c-0.4,1-0.7,2-1.1,3c0,0,0,0.1,0,0.1c0,0,0,0,0,0
		c0,0,0,0,0-0.1c0.5-0.6,1-1.1,1.6-1.6c0.4-0.4,0.9-0.7,1.4-1c0.7-0.3,1.4-0.6,2.2-0.8c0,0,0.1,0,0.1,0
		C20.3,22.8,19.8,21.6,19.7,20.1z"/>
	<g>
		<path class="st1" d="M33.8,46.8c-0.3,0.2-0.5,0.4-0.8,0.6c-0.9,0.5-1.8,0.8-2.7,1.1c-0.6,0.2-1.2,0.3-1.8,0.3c-0.5,0-1,0-1.4-0.1
			c-1.2-0.2-2.4-0.5-3.5-1.1c-0.5-0.2-0.9-0.5-1.3-0.8c0,0-0.1-0.1-0.2-0.1c0.1,0,0.1-0.1,0.1-0.1c0.6-0.3,1.1-0.8,1.3-1.5
			c0.2-0.8,0.1-1.6-0.3-2.3c-0.2-0.3-0.4-0.5-0.6-0.8c-0.4-0.7-0.9-1.3-1.3-2c-0.5-0.9-0.9-1.9-1.2-2.9c-0.1-0.2-0.1-0.5-0.2-0.7
			c0,0,0-0.1,0-0.1c0.1,0,0.1,0.1,0.2,0.1c0.7,0.4,1.5,0.7,2.3,0.8c1.3,0.2,2.6-0.1,3.8-0.6c0.5-0.2,1.1-0.5,1.6-0.8
			c0.1-0.1,0.2-0.1,0.3,0c0.8,0.5,1.7,1,2.7,1.2c1.5,0.4,2.9,0.3,4.4-0.3c0.1-0.1,0.3-0.1,0.4-0.2c0.1-0.1,0.2-0.1,0.4-0.2
			c0,0.1,0,0.1,0,0.2c-0.4,1.6-0.9,3-1.8,4.4c-0.4,0.5-0.7,1.1-1.1,1.6c-0.1,0.1-0.1,0.2-0.2,0.2c-0.4,0.5-0.6,1.1-0.6,1.7
			c0,1,0.5,1.8,1.4,2.3C33.6,46.7,33.7,46.7,33.8,46.8z"/>
	</g>
</g>
</svg>
